<mxfile host="Electron" agent="Mozilla/5.0 (Windows NT 10.0; Win64; x64) AppleWebKit/537.36 (KHTML, like Gecko) draw.io/27.0.9 Chrome/134.0.6998.205 Electron/35.4.0 Safari/537.36" version="27.0.9">
  <diagram name="Page-1" id="2Iq1XLSnrmMR_IESQ607">
    <mxGraphModel dx="772" dy="501" grid="1" gridSize="10" guides="1" tooltips="1" connect="1" arrows="1" fold="1" page="1" pageScale="1" pageWidth="850" pageHeight="1100" math="0" shadow="0">
      <root>
        <mxCell id="0" />
        <mxCell id="1" parent="0" />
        <mxCell id="FuPBX2rJtBVnACbYroiF-37" value="" style="rounded=0;whiteSpace=wrap;html=1;fillColor=none;dashed=1;dashPattern=1 4;" parent="1" vertex="1">
          <mxGeometry x="20" y="300" width="510" height="210" as="geometry" />
        </mxCell>
        <mxCell id="FuPBX2rJtBVnACbYroiF-36" value="" style="rounded=0;whiteSpace=wrap;html=1;fillColor=none;dashed=1;dashPattern=1 4;" parent="1" vertex="1">
          <mxGeometry x="20" y="40" width="510" height="260" as="geometry" />
        </mxCell>
        <mxCell id="FuPBX2rJtBVnACbYroiF-1" value="crm_cust_info" style="swimlane;fontStyle=0;childLayout=stackLayout;horizontal=1;startSize=30;horizontalStack=0;resizeParent=1;resizeParentMax=0;resizeLast=0;collapsible=1;marginBottom=0;whiteSpace=wrap;html=1;fontSize=16;fillColor=#a20025;fontColor=#ffffff;strokeColor=#6F0000;" parent="1" vertex="1">
          <mxGeometry x="80" y="185" width="110" height="90" as="geometry" />
        </mxCell>
        <mxCell id="FuPBX2rJtBVnACbYroiF-30" value="cst_id" style="text;strokeColor=none;fillColor=none;align=left;verticalAlign=middle;spacingLeft=4;spacingRight=4;overflow=hidden;points=[[0,0.5],[1,0.5]];portConstraint=eastwest;rotatable=0;whiteSpace=wrap;html=1;fontSize=13;" parent="FuPBX2rJtBVnACbYroiF-1" vertex="1">
          <mxGeometry y="30" width="110" height="30" as="geometry" />
        </mxCell>
        <mxCell id="FuPBX2rJtBVnACbYroiF-2" value="cst_key" style="text;strokeColor=none;fillColor=none;align=left;verticalAlign=middle;spacingLeft=4;spacingRight=4;overflow=hidden;points=[[0,0.5],[1,0.5]];portConstraint=eastwest;rotatable=0;whiteSpace=wrap;html=1;fontSize=13;" parent="FuPBX2rJtBVnACbYroiF-1" vertex="1">
          <mxGeometry y="60" width="110" height="30" as="geometry" />
        </mxCell>
        <mxCell id="FuPBX2rJtBVnACbYroiF-5" value="crm_prd_info" style="swimlane;fontStyle=0;childLayout=stackLayout;horizontal=1;startSize=30;horizontalStack=0;resizeParent=1;resizeParentMax=0;resizeLast=0;collapsible=1;marginBottom=0;whiteSpace=wrap;html=1;fontSize=16;fillColor=#a20025;fontColor=#ffffff;strokeColor=#6F0000;" parent="1" vertex="1">
          <mxGeometry x="300" y="185" width="120" height="60" as="geometry" />
        </mxCell>
        <mxCell id="FuPBX2rJtBVnACbYroiF-7" value="prd_key" style="text;strokeColor=none;fillColor=none;align=left;verticalAlign=middle;spacingLeft=4;spacingRight=4;overflow=hidden;points=[[0,0.5],[1,0.5]];portConstraint=eastwest;rotatable=0;whiteSpace=wrap;html=1;fontSize=13;" parent="FuPBX2rJtBVnACbYroiF-5" vertex="1">
          <mxGeometry y="30" width="120" height="30" as="geometry" />
        </mxCell>
        <mxCell id="FuPBX2rJtBVnACbYroiF-9" value="crm_sales_details" style="swimlane;fontStyle=0;childLayout=stackLayout;horizontal=1;startSize=30;horizontalStack=0;resizeParent=1;resizeParentMax=0;resizeLast=0;collapsible=1;marginBottom=0;whiteSpace=wrap;html=1;fontSize=16;fillColor=#a20025;fontColor=#ffffff;strokeColor=#6F0000;" parent="1" vertex="1">
          <mxGeometry x="130" y="50" width="140" height="90" as="geometry" />
        </mxCell>
        <mxCell id="FuPBX2rJtBVnACbYroiF-10" value="sls_prd_key" style="text;strokeColor=none;fillColor=none;align=left;verticalAlign=middle;spacingLeft=4;spacingRight=4;overflow=hidden;points=[[0,0.5],[1,0.5]];portConstraint=eastwest;rotatable=0;whiteSpace=wrap;html=1;fontSize=13;" parent="FuPBX2rJtBVnACbYroiF-9" vertex="1">
          <mxGeometry y="30" width="140" height="30" as="geometry" />
        </mxCell>
        <mxCell id="FuPBX2rJtBVnACbYroiF-11" value="sls_cust_id" style="text;strokeColor=none;fillColor=none;align=left;verticalAlign=middle;spacingLeft=4;spacingRight=4;overflow=hidden;points=[[0,0.5],[1,0.5]];portConstraint=eastwest;rotatable=0;whiteSpace=wrap;html=1;fontSize=13;" parent="FuPBX2rJtBVnACbYroiF-9" vertex="1">
          <mxGeometry y="60" width="140" height="30" as="geometry" />
        </mxCell>
        <mxCell id="FuPBX2rJtBVnACbYroiF-23" value="erp_cust_az12" style="swimlane;fontStyle=0;childLayout=stackLayout;horizontal=1;startSize=30;horizontalStack=0;resizeParent=1;resizeParentMax=0;resizeLast=0;collapsible=1;marginBottom=0;whiteSpace=wrap;html=1;fontSize=16;fillColor=#0050ef;fontColor=#ffffff;strokeColor=#001DBC;" parent="1" vertex="1">
          <mxGeometry x="50" y="320" width="140" height="60" as="geometry" />
        </mxCell>
        <mxCell id="FuPBX2rJtBVnACbYroiF-25" value="cid" style="text;strokeColor=none;fillColor=none;align=left;verticalAlign=middle;spacingLeft=4;spacingRight=4;overflow=hidden;points=[[0,0.5],[1,0.5]];portConstraint=eastwest;rotatable=0;whiteSpace=wrap;html=1;fontSize=13;" parent="FuPBX2rJtBVnACbYroiF-23" vertex="1">
          <mxGeometry y="30" width="140" height="30" as="geometry" />
        </mxCell>
        <mxCell id="FuPBX2rJtBVnACbYroiF-26" value="erp_loc_a101" style="swimlane;fontStyle=0;childLayout=stackLayout;horizontal=1;startSize=30;horizontalStack=0;resizeParent=1;resizeParentMax=0;resizeLast=0;collapsible=1;marginBottom=0;whiteSpace=wrap;html=1;fontSize=16;fillColor=#0050ef;fontColor=#ffffff;strokeColor=#001DBC;" parent="1" vertex="1">
          <mxGeometry x="50" y="420" width="140" height="60" as="geometry" />
        </mxCell>
        <mxCell id="FuPBX2rJtBVnACbYroiF-27" value="cid" style="text;strokeColor=none;fillColor=none;align=left;verticalAlign=middle;spacingLeft=4;spacingRight=4;overflow=hidden;points=[[0,0.5],[1,0.5]];portConstraint=eastwest;rotatable=0;whiteSpace=wrap;html=1;fontSize=13;" parent="FuPBX2rJtBVnACbYroiF-26" vertex="1">
          <mxGeometry y="30" width="140" height="30" as="geometry" />
        </mxCell>
        <mxCell id="FuPBX2rJtBVnACbYroiF-28" value="erp_px_cat_g1v2" style="swimlane;fontStyle=0;childLayout=stackLayout;horizontal=1;startSize=30;horizontalStack=0;resizeParent=1;resizeParentMax=0;resizeLast=0;collapsible=1;marginBottom=0;whiteSpace=wrap;html=1;fontSize=16;fillColor=#0050ef;fontColor=#ffffff;strokeColor=#001DBC;" parent="1" vertex="1">
          <mxGeometry x="310" y="330" width="140" height="60" as="geometry" />
        </mxCell>
        <mxCell id="FuPBX2rJtBVnACbYroiF-29" value="id" style="text;strokeColor=none;fillColor=none;align=left;verticalAlign=middle;spacingLeft=4;spacingRight=4;overflow=hidden;points=[[0,0.5],[1,0.5]];portConstraint=eastwest;rotatable=0;whiteSpace=wrap;html=1;fontSize=13;" parent="FuPBX2rJtBVnACbYroiF-28" vertex="1">
          <mxGeometry y="30" width="140" height="30" as="geometry" />
        </mxCell>
        <mxCell id="FuPBX2rJtBVnACbYroiF-38" value="CRM" style="rounded=0;whiteSpace=wrap;html=1;fillColor=#a20025;fontColor=#ffffff;strokeColor=#6F0000;" parent="1" vertex="1">
          <mxGeometry x="530" y="40" width="120" height="60" as="geometry" />
        </mxCell>
        <mxCell id="FuPBX2rJtBVnACbYroiF-39" value="ERP" style="rounded=0;whiteSpace=wrap;html=1;fillColor=#0050ef;fontColor=#ffffff;strokeColor=#001DBC;" parent="1" vertex="1">
          <mxGeometry x="530" y="300" width="120" height="60" as="geometry" />
        </mxCell>
        <mxCell id="AfSiA4yDxVusVXIB39pU-1" style="edgeStyle=orthogonalEdgeStyle;rounded=0;orthogonalLoop=1;jettySize=auto;html=1;exitX=0;exitY=0.5;exitDx=0;exitDy=0;entryX=0;entryY=0.5;entryDx=0;entryDy=0;" edge="1" parent="1" source="FuPBX2rJtBVnACbYroiF-11" target="FuPBX2rJtBVnACbYroiF-30">
          <mxGeometry relative="1" as="geometry" />
        </mxCell>
        <mxCell id="AfSiA4yDxVusVXIB39pU-6" style="edgeStyle=orthogonalEdgeStyle;rounded=0;orthogonalLoop=1;jettySize=auto;html=1;exitX=1;exitY=0.5;exitDx=0;exitDy=0;entryX=1;entryY=0.5;entryDx=0;entryDy=0;" edge="1" parent="1" source="FuPBX2rJtBVnACbYroiF-7" target="FuPBX2rJtBVnACbYroiF-29">
          <mxGeometry relative="1" as="geometry" />
        </mxCell>
        <mxCell id="AfSiA4yDxVusVXIB39pU-7" style="edgeStyle=orthogonalEdgeStyle;rounded=0;orthogonalLoop=1;jettySize=auto;html=1;exitX=1;exitY=0.5;exitDx=0;exitDy=0;entryX=1;entryY=0.5;entryDx=0;entryDy=0;" edge="1" parent="1" source="FuPBX2rJtBVnACbYroiF-2" target="FuPBX2rJtBVnACbYroiF-25">
          <mxGeometry relative="1" as="geometry" />
        </mxCell>
        <mxCell id="AfSiA4yDxVusVXIB39pU-8" style="edgeStyle=orthogonalEdgeStyle;rounded=0;orthogonalLoop=1;jettySize=auto;html=1;exitX=1;exitY=0.5;exitDx=0;exitDy=0;entryX=1;entryY=0.5;entryDx=0;entryDy=0;" edge="1" parent="1" source="FuPBX2rJtBVnACbYroiF-2" target="FuPBX2rJtBVnACbYroiF-27">
          <mxGeometry relative="1" as="geometry" />
        </mxCell>
        <mxCell id="AfSiA4yDxVusVXIB39pU-9" style="edgeStyle=orthogonalEdgeStyle;rounded=0;orthogonalLoop=1;jettySize=auto;html=1;exitX=1;exitY=0.5;exitDx=0;exitDy=0;entryX=0;entryY=0.5;entryDx=0;entryDy=0;" edge="1" parent="1" source="FuPBX2rJtBVnACbYroiF-10" target="FuPBX2rJtBVnACbYroiF-7">
          <mxGeometry relative="1" as="geometry">
            <Array as="points">
              <mxPoint x="280" y="95" />
              <mxPoint x="280" y="230" />
            </Array>
          </mxGeometry>
        </mxCell>
        <mxCell id="AfSiA4yDxVusVXIB39pU-10" value="&lt;b&gt;SALES&lt;/b&gt;" style="text;html=1;strokeColor=#b46504;fillColor=#fad7ac;align=center;verticalAlign=middle;whiteSpace=wrap;overflow=hidden;fillStyle=hatch;" vertex="1" parent="1">
          <mxGeometry x="130" y="140" width="140" height="20" as="geometry" />
        </mxCell>
        <mxCell id="AfSiA4yDxVusVXIB39pU-11" value="&lt;b&gt;PRODUCT&lt;/b&gt;" style="text;html=1;strokeColor=#ae4132;fillColor=#fad9d5;align=center;verticalAlign=middle;whiteSpace=wrap;overflow=hidden;fillStyle=hatch;" vertex="1" parent="1">
          <mxGeometry x="300" y="245" width="120" height="20" as="geometry" />
        </mxCell>
        <mxCell id="AfSiA4yDxVusVXIB39pU-12" value="&lt;b&gt;CUSTOMER&lt;/b&gt;" style="text;html=1;strokeColor=#432D57;fillColor=#76608a;align=center;verticalAlign=middle;whiteSpace=wrap;overflow=hidden;fillStyle=hatch;fontColor=#ffffff;" vertex="1" parent="1">
          <mxGeometry x="80" y="275" width="110" height="20" as="geometry" />
        </mxCell>
        <mxCell id="AfSiA4yDxVusVXIB39pU-13" value="&lt;b&gt;PRODUCT&lt;/b&gt;" style="text;html=1;strokeColor=#ae4132;fillColor=#fad9d5;align=center;verticalAlign=middle;whiteSpace=wrap;overflow=hidden;fillStyle=hatch;" vertex="1" parent="1">
          <mxGeometry x="310" y="390" width="140" height="20" as="geometry" />
        </mxCell>
        <mxCell id="AfSiA4yDxVusVXIB39pU-14" value="&lt;b&gt;CUSTOMER&lt;/b&gt;" style="text;html=1;strokeColor=#432D57;fillColor=#76608a;align=center;verticalAlign=middle;whiteSpace=wrap;overflow=hidden;fillStyle=hatch;fontColor=#ffffff;" vertex="1" parent="1">
          <mxGeometry x="50" y="480" width="140" height="20" as="geometry" />
        </mxCell>
        <mxCell id="AfSiA4yDxVusVXIB39pU-15" value="&lt;b&gt;CUSTOMER&lt;/b&gt;" style="text;html=1;strokeColor=#432D57;fillColor=#76608a;align=center;verticalAlign=middle;whiteSpace=wrap;overflow=hidden;fillStyle=hatch;fontColor=#ffffff;" vertex="1" parent="1">
          <mxGeometry x="50" y="380" width="140" height="20" as="geometry" />
        </mxCell>
      </root>
    </mxGraphModel>
  </diagram>
</mxfile>
